<?xml version="1.0" encoding="UTF-8" standalone="no"?>
<!DOCTYPE svg PUBLIC "-//W3C//DTD SVG 1.1//EN" "http://www.w3.org/Graphics/SVG/1.1/DTD/svg11.dtd">
<svg xmlns="http://www.w3.org/2000/svg" version="1.1" viewBox="0.00 0.00 978.00 230.00">
<g stroke-width="2.00" fill="none" stroke-linecap="butt">
<path stroke="#74ac3c" vector-effect="non-scaling-stroke" d="
  M 243.98 91.44
  L 244.62 99.55"
/>
<path stroke="#74ac3c" vector-effect="non-scaling-stroke" d="
  M 244.45 99.71
  Q 243.90 100.24 244.35 101.08"
/>
</g>
<path fill="#42893f" d="
  M 252.64 121.16
  Q 249.19 117.66 246.06 116.68
  A 0.88 0.88 0.0 0 1 245.44 115.84
  L 245.44 112.24
  A 0.81 0.76 -30.1 0 1 245.57 111.81
  Q 254.69 98.43 247.08 84.19
  A 1.23 1.22 -48.7 0 1 247.02 83.20
  Q 252.88 67.62 269.36 63.84
  C 273.12 62.97 279.78 63.94 284.08 62.79
  C 300.55 58.40 306.23 38.06 293.60 26.39
  Q 287.21 20.48 278.00 20.52
  Q 248.17 20.66 172.51 20.53
  Q 164.67 20.52 161.12 21.97
  C 141.33 30.11 143.71 58.33 164.71 62.97
  C 169.03 63.92 173.65 63.03 178.16 63.80
  C 190.47 65.91 200.18 75.60 202.16 88.01
  A 2.29 2.26 50.6 0 1 202.06 89.12
  Q 199.36 97.09 202.23 105.15
  A 5.24 5.10 -55.5 0 1 202.53 106.89
  L 202.53 120.31
  A 1.48 1.48 0.0 0 1 201.54 121.71
  L 195.60 123.78
  A 0.71 0.70 -9.7 0 1 194.66 123.12
  Q 194.62 100.06 194.68 96.44
  Q 194.82 89.07 193.39 85.20
  C 190.49 77.37 182.63 71.49 174.23 71.36
  C 167.99 71.26 162.75 71.29 157.69 69.02
  Q 143.11 62.47 140.03 46.99
  C 138.49 39.23 140.75 30.23 146.06 23.78
  Q 155.20 12.66 169.53 12.65
  Q 204.42 12.65 274.30 12.62
  Q 283.20 12.62 287.50 13.97
  C 301.55 18.38 310.55 32.22 307.79 47.27
  C 305.55 59.45 296.16 68.49 284.03 70.78
  C 280.61 71.43 276.09 71.00 273.02 71.31
  C 261.41 72.49 253.24 81.65 253.30 93.28
  Q 253.38 109.58 253.33 120.88
  A 0.40 0.40 0.0 0 1 252.64 121.16
  Z"
/>
<path fill="#3a306c" d="
  M 345.95 31.26
  L 357.41 12.76
  A 0.26 0.24 13.8 0 1 357.63 12.64
  L 387.46 12.64
  A 0.49 0.48 0.0 0 1 387.95 13.12
  L 387.95 39.44
  A 0.42 0.41 90.0 0 0 388.36 39.86
  L 437.73 39.86
  A 0.43 0.42 -90.0 0 1 438.15 40.29
  L 438.15 66.15
  A 0.49 0.49 0.0 0 1 437.66 66.64
  L 388.39 66.64
  A 0.46 0.46 0.0 0 0 387.93 67.10
  Q 388.01 90.43 387.91 99.28
  C 387.78 109.55 392.14 117.65 400.66 122.86
  Q 405.83 126.03 406.24 126.23
  C 409.11 127.62 412.77 128.21 416.42 128.19
  Q 424.14 128.17 437.77 128.19
  A 0.42 0.41 -0.0 0 1 438.19 128.60
  L 438.19 154.79
  A 0.55 0.55 0.0 0 1 437.65 155.34
  Q 436.92 155.35 415.51 155.33
  C 388.79 155.31 361.03 129.41 360.92 102.08
  Q 360.76 60.17 360.89 32.65
  A 0.52 0.51 0.0 0 0 360.37 32.14
  L 346.44 32.14
  A 0.58 0.58 0.0 0 1 345.95 31.26
  Z"
/>
<path fill="#42893f" d="
  M 220.81 72.13
  A 0.11 0.11 0.0 0 1 220.70 72.01
  Q 220.95 64.18 220.05 61.47
  Q 216.44 50.51 206.42 46.91
  Q 202.60 45.54 194.94 45.62
  Q 184.41 45.73 183.33 45.74
  A 1.22 1.20 21.9 0 0 182.51 46.08
  Q 178.32 50.07 173.93 47.48
  C 165.78 42.65 174.40 30.04 182.19 37.25
  A 2.13 2.08 -22.6 0 0 183.60 37.81
  Q 191.41 37.86 194.70 37.81
  Q 202.23 37.69 205.74 38.56
  Q 222.88 42.80 228.05 60.74
  Q 228.69 62.96 228.58 71.65
  A 0.49 0.49 0.0 0 1 228.09 72.13
  L 220.81 72.13
  Z"
/>
<path fill="#3a306c" d="
  M 512.89 96.65
  L 526.46 74.74
  A 0.69 0.68 36.5 0 0 526.32 73.85
  Q 513.80 63.33 497.76 67.49
  C 489.93 69.52 482.60 75.52 478.82 83.02
  C 470.28 99.90 478.25 121.24 497.10 126.87
  C 512.78 131.56 528.01 124.15 534.82 109.38
  A 0.90 0.89 -77.5 0 1 535.63 108.86
  L 562.45 108.86
  A 0.58 0.57 -84.2 0 1 563.01 109.55
  Q 559.91 124.44 549.65 135.92
  C 525.87 162.53 483.76 161.73 461.14 133.61
  C 446.71 115.68 444.31 91.13 454.78 70.74
  C 463.37 54.01 480.18 42.11 499.01 39.79
  C 525.57 36.52 549.79 51.34 560.13 75.82
  A 1.52 1.50 45.8 0 1 560.12 77.03
  C 559.26 78.99 558.51 81.11 557.42 82.86
  Q 553.84 88.63 548.76 96.77
  A 1.14 1.12 15.8 0 1 547.80 97.30
  L 513.25 97.30
  A 0.43 0.42 -74.1 0 1 512.89 96.65
  Z"
/>
<path fill="#3a306c" d="
  M 604.70 44.97
  Q 605.40 44.71 610.87 42.36
  C 614.59 40.76 619.85 40.47 624.41 39.86
  Q 628.27 39.35 631.12 39.61
  C 652.72 41.54 670.53 56.34 675.92 77.25
  Q 677.54 83.51 677.51 97.93
  Q 677.39 152.09 677.44 154.77
  A 0.52 0.51 89.4 0 1 676.93 155.30
  L 651.01 155.30
  A 0.61 0.61 0.0 0 1 650.40 154.69
  Q 650.35 109.89 650.41 89.78
  C 650.43 82.85 647.66 79.13 644.17 73.95
  A 5.85 5.80 4.1 0 0 643.21 72.85
  Q 632.94 63.61 619.76 67.78
  A 8.78 8.60 18.3 0 0 617.49 68.89
  L 610.90 73.39
  A 1.07 0.99 2.4 0 0 610.77 73.50
  Q 604.16 80.51 604.15 90.00
  Q 604.11 114.43 604.15 154.70
  A 0.64 0.63 0.0 0 1 603.51 155.33
  L 577.53 155.33
  A 0.40 0.40 0.0 0 1 577.13 154.93
  L 577.13 59.36
  A 0.37 0.37 0.0 0 0 576.76 58.99
  L 561.99 58.99
  A 0.33 0.33 0.0 0 1 561.71 58.48
  L 573.41 39.59
  A 0.27 0.25 -72.7 0 1 573.63 39.46
  L 603.52 39.46
  A 0.62 0.61 -90.0 0 1 604.13 40.08
  L 604.13 44.57
  A 0.43 0.42 79.9 0 0 604.70 44.97
  Z"
/>
<path fill="#3a306c" d="
  M 804.50 155.33
  L 778.76 155.33
  A 0.61 0.60 90.0 0 1 778.16 154.72
  L 778.16 147.10
  A 0.39 0.39 0.0 0 0 777.57 146.77
  C 752.55 161.62 721.32 156.65 702.62 134.30
  C 688.47 117.39 685.37 93.43 694.49 73.57
  C 711.44 36.69 760.20 27.62 788.69 57.01
  Q 805.10 73.94 805.16 98.02
  Q 805.29 141.44 805.17 154.67
  A 0.67 0.66 -0.0 0 1 804.50 155.33
  Z
  M 778.19 97.44
  A 30.87 30.87 0.0 0 0 747.32 66.57
  A 30.87 30.87 0.0 0 0 716.45 97.44
  A 30.87 30.87 0.0 0 0 747.32 128.31
  A 30.87 30.87 0.0 0 0 778.19 97.44
  Z"
/>
<path fill="#a6ce38" d="
  M 243.98 91.44
  L 244.62 99.55
  Q 244.53 99.63 244.45 99.71
  Q 243.90 100.24 244.35 101.08
  C 242.81 107.58 238.70 112.12 232.68 114.72
  Q 230.83 115.52 227.85 116.85
  C 216.00 122.14 211.28 136.50 218.66 147.52
  C 223.91 155.36 226.55 163.28 224.61 172.61
  C 219.70 196.33 190.94 206.02 173.07 189.17
  C 156.75 173.78 161.56 147.05 182.24 138.12
  Q 184.55 137.12 190.40 135.88
  C 204.38 132.92 213.54 125.91 210.25 110.01
  C 209.74 107.57 207.55 104.00 206.98 101.34
  C 205.16 93.00 208.52 84.72 215.86 80.42
  C 226.54 74.17 240.46 79.22 243.98 91.44
  Z"
/>
<path fill="#42893f" d="
  M 244.62 99.55
  L 243.98 91.44
  Q 245.39 95.54 244.62 99.55
  Z"
/>
<path fill="#42893f" d="
  M 244.45 99.71
  Q 244.56 100.35 244.35 101.08
  Q 243.90 100.24 244.45 99.71
  Z"
/>
<path fill="#3a306c" d="
  M 275.93 190.58
  C 262.93 198.32 247.01 187.39 249.33 172.36
  C 249.86 168.92 252.00 166.17 252.64 162.95
  C 254.08 155.72 250.19 150.43 243.32 148.67
  C 238.74 147.50 235.57 145.64 234.09 141.57
  C 232.24 136.46 234.03 130.91 238.73 128.11
  C 243.42 125.31 249.16 126.39 252.77 130.45
  C 255.65 133.68 255.77 137.36 254.62 141.94
  C 252.89 148.82 255.69 154.76 262.73 156.94
  C 265.87 157.91 269.31 157.34 272.59 158.51
  C 286.91 163.63 288.93 182.84 275.93 190.58
  Z"
/>
<path fill="#3a306c" d="
  M 720.09 173.84
  L 722.07 173.84
  A 0.80 0.80 0.0 0 1 722.64 175.20
  L 718.71 179.13
  A 4.51 4.49 -67.4 0 1 715.53 180.45
  L 714.14 180.45
  A 0.89 0.88 22.4 0 1 713.51 178.94
  L 717.55 174.90
  A 3.58 3.57 -67.6 0 1 720.09 173.84
  Z"
/>
<path fill="#3a306c" d="
  M 477.03 178.95
  Q 476.45 178.67 475.87 178.42
  Q 474.07 177.63 473.59 179.46
  A 1.13 1.12 3.2 0 1 472.67 180.28
  Q 471.40 180.46 471.05 180.15
  A 2.77 2.36 -50.5 0 1 470.99 176.60
  C 473.43 173.53 475.82 174.21 479.00 175.73
  Q 479.58 176.01 480.17 176.27
  Q 481.96 177.05 482.44 175.22
  A 1.13 1.12 3.2 0 1 483.36 174.40
  Q 484.63 174.22 484.98 174.53
  A 2.77 2.36 -50.5 0 1 485.04 178.08
  C 482.60 181.15 480.21 180.47 477.03 178.95
  Z"
/>
<path fill="#42893f" d="
  M 242.74 184.28
  L 243.46 182.19
  A 0.58 0.58 0.0 0 1 244.57 182.22
  Q 246.43 188.78 252.04 193.44
  A 1.66 1.65 28.3 0 1 252.57 195.18
  C 247.95 210.78 233.99 220.10 218.07 216.89
  Q 206.01 214.46 198.84 203.31
  A 0.16 0.15 67.1 0 1 198.93 203.08
  L 206.50 201.26
  A 0.59 0.58 63.7 0 1 207.08 201.46
  C 213.52 209.34 223.95 211.94 233.17 207.60
  Q 242.46 203.23 245.21 192.18
  A 2.60 2.58 35.1 0 0 244.84 190.10
  L 243.20 187.69
  A 3.82 3.82 0.0 0 1 242.74 184.28
  Z"
/>
<path fill="#3a306c" d="
  M 362.24 185.14
  L 362.24 186.92
  A 0.98 0.98 0.0 0 1 360.70 187.73
  C 358.92 186.51 353.79 184.72 352.28 187.77
  C 351.19 189.97 353.20 191.73 355.08 192.48
  C 358.88 193.99 363.42 196.13 363.75 200.82
  C 364.39 209.99 354.36 211.53 347.82 209.12
  A 3.23 3.22 10.2 0 1 345.70 206.10
  L 345.70 204.86
  A 1.28 1.27 -75.1 0 1 347.62 203.75
  Q 353.16 206.93 356.27 205.07
  C 358.67 203.64 358.49 200.85 356.20 199.48
  C 353.90 198.10 350.08 196.93 348.36 194.95
  C 344.51 190.51 346.17 184.17 351.74 182.30
  Q 355.52 181.03 360.43 182.63
  A 2.64 2.63 9.2 0 1 362.24 185.14
  Z"
/>
<path fill="#3a306c" d="
  M 392.46 198.00
  C 392.04 201.63 391.66 203.98 389.32 206.31
  Q 385.14 210.47 379.54 210.21
  C 373.99 209.96 369.46 208.56 367.69 202.92
  Q 366.49 199.07 367.06 194.10
  C 367.48 190.48 367.86 188.13 370.20 185.80
  Q 374.38 181.64 379.98 181.90
  C 385.53 182.15 390.06 183.55 391.83 189.19
  Q 393.03 193.03 392.46 198.00
  Z
  M 386.8321 193.0971
  A 6.47 6.47 0.0 0 0 380.4990 186.4930
  L 379.4593 186.4712
  A 6.47 6.47 0.0 0 0 372.8552 192.8043
  L 372.7279 198.8829
  A 6.47 6.47 0.0 0 0 379.0610 205.4870
  L 380.1007 205.5088
  A 6.47 6.47 0.0 0 0 386.7048 199.1757
  L 386.8321 193.0971
  Z"
/>
<path fill="#3a306c" d="
  M 465.19 194.34
  C 465.54 190.71 465.88 188.36 468.17 185.98
  Q 472.27 181.75 477.87 181.90
  C 483.42 182.05 487.97 183.36 489.84 188.96
  Q 491.12 192.78 490.64 197.76
  C 490.29 201.39 489.95 203.74 487.66 206.11
  Q 483.56 210.35 477.96 210.19
  C 472.41 210.05 467.86 208.74 465.99 203.13
  Q 464.71 199.31 465.19 194.34
  Z
  M 484.9662 193.1896
  A 6.49 6.49 0.0 0 0 478.6716 186.5099
  L 477.6121 186.4785
  A 6.49 6.49 0.0 0 0 470.9324 192.7731
  L 470.7538 198.7904
  A 6.49 6.49 0.0 0 0 477.0484 205.4701
  L 478.1079 205.5015
  A 6.49 6.49 0.0 0 0 484.7876 199.2069
  L 484.9662 193.1896
  Z"
/>
<path fill="#3a306c" d="
  M 531.29 185.14
  L 531.29 186.92
  A 0.98 0.98 0.0 0 1 529.75 187.73
  C 527.97 186.51 522.84 184.73 521.33 187.77
  C 520.24 189.97 522.25 191.73 524.13 192.48
  C 527.93 193.99 532.47 196.13 532.80 200.82
  C 533.44 209.99 523.41 211.53 516.87 209.12
  A 3.23 3.22 10.2 0 1 514.76 206.10
  L 514.76 204.86
  A 1.28 1.27 -75.1 0 1 516.67 203.75
  Q 522.21 206.93 525.32 205.07
  C 527.72 203.64 527.54 200.85 525.25 199.48
  C 522.95 198.10 519.13 196.93 517.41 194.95
  C 513.57 190.51 515.22 184.18 520.79 182.31
  Q 524.57 181.04 529.48 182.64
  A 2.64 2.63 9.2 0 1 531.29 185.14
  Z"
/>
<path fill="#3a306c" d="
  M 561.78 185.14
  L 561.78 186.92
  A 0.98 0.98 0.0 0 1 560.24 187.73
  C 558.46 186.51 553.34 184.74 551.83 187.77
  C 550.74 189.97 552.75 191.73 554.63 192.48
  C 558.42 193.99 562.96 196.13 563.29 200.82
  C 563.93 209.98 553.91 211.52 547.37 209.11
  A 3.23 3.21 10.2 0 1 545.26 206.10
  L 545.26 204.86
  A 1.28 1.27 -75.1 0 1 547.17 203.75
  Q 552.71 206.92 555.82 205.06
  C 558.22 203.64 558.04 200.85 555.75 199.48
  C 553.45 198.10 549.63 196.93 547.91 194.95
  C 544.07 190.51 545.72 184.19 551.29 182.32
  Q 555.06 181.05 559.97 182.65
  A 2.64 2.63 9.2 0 1 561.78 185.14
  Z"
/>
<path fill="#3a306c" d="
  M 610.90 185.11
  L 610.91 186.89
  A 0.98 0.98 0.0 0 1 609.37 187.71
  C 607.59 186.49 602.45 184.73 600.95 187.77
  C 599.87 189.97 601.89 191.73 603.77 192.47
  C 607.57 193.97 612.12 196.09 612.46 200.78
  C 613.13 209.95 603.11 211.52 596.56 209.13
  A 3.23 3.22 10.0 0 1 594.44 206.12
  L 594.44 204.88
  A 1.28 1.27 -75.3 0 1 596.34 203.76
  Q 601.89 206.93 605.00 205.06
  C 607.39 203.62 607.20 200.83 604.91 199.47
  C 602.61 198.09 598.78 196.94 597.06 194.96
  C 593.20 190.54 594.83 184.20 600.40 182.31
  Q 604.17 181.03 609.09 182.62
  A 2.64 2.63 9.0 0 1 610.90 185.11
  Z"
/>
<path fill="#3a306c" d="
  M 803.67 185.12
  L 803.67 186.90
  A 0.98 0.98 0.0 0 1 802.13 187.71
  C 800.35 186.50 795.22 184.73 793.71 187.77
  C 792.63 189.98 794.64 191.73 796.53 192.48
  C 800.33 193.98 804.87 196.10 805.22 200.79
  C 805.88 209.96 795.86 211.53 789.31 209.13
  A 3.23 3.22 10.0 0 1 787.19 206.12
  L 787.19 204.88
  A 1.28 1.27 -75.2 0 1 789.10 203.76
  Q 794.64 206.93 797.75 205.06
  C 800.14 203.63 799.96 200.84 797.66 199.47
  C 795.36 198.10 791.54 196.94 789.81 194.96
  C 785.96 190.53 787.60 184.20 793.16 182.32
  Q 796.94 181.04 801.85 182.62
  A 2.64 2.63 9.1 0 1 803.67 185.12
  Z"
/>
<path fill="#3a306c" d="
  M 462.31 185.81
  L 462.31 187.92
  A 0.92 0.92 0.0 0 1 460.86 188.68
  C 446.52 178.70 443.23 206.28 455.77 205.59
  Q 458.27 205.45 460.81 203.73
  A 1.00 1.00 0.0 0 1 462.37 204.56
  L 462.37 206.66
  A 2.44 2.43 80.4 0 1 460.74 208.96
  L 457.05 210.25
  A 0.69 0.69 0.0 0 0 456.67 211.23
  Q 458.21 214.05 456.85 215.95
  C 455.41 217.95 451.89 217.61 449.84 217.21
  A 1.56 1.55 5.7 0 1 448.59 215.69
  L 448.59 215.09
  A 1.21 1.21 0.0 0 1 449.82 213.88
  Q 452.82 213.93 452.89 213.70
  A 2.97 2.96 -74.0 0 0 450.79 209.90
  Q 444.02 208.21 442.70 201.06
  Q 441.70 195.63 442.45 192.21
  C 443.08 189.34 445.66 184.45 448.77 183.26
  C 452.76 181.74 457.29 181.28 461.02 183.53
  A 2.67 2.66 15.7 0 1 462.31 185.81
  Z"
/>
<path fill="#3a306c" d="
  M 404.16 205.19
  L 411.55 205.19
  A 1.04 1.04 0.0 0 1 412.59 206.23
  L 412.59 208.76
  A 1.04 1.04 0.0 0 1 411.55 209.80
  L 398.61 209.80
  A 1.04 1.04 0.0 0 1 397.57 208.76
  L 397.57 183.25
  A 1.04 1.04 0.0 0 1 398.61 182.21
  L 402.08 182.21
  A 1.04 1.04 0.0 0 1 403.12 183.25
  L 403.12 204.15
  A 1.04 1.04 0.0 0 0 404.16 205.19
  Z"
/>
<path fill="#3a306c" d="
  M 426.06 210.25
  C 419.70 210.24 415.20 207.18 414.87 200.45
  Q 414.76 198.13 414.80 183.39
  A 1.20 1.19 0.2 0 1 416.00 182.21
  L 419.30 182.22
  A 1.14 1.14 0.0 0 1 420.43 183.35
  Q 420.45 187.95 420.39 197.72
  C 420.37 202.10 421.16 205.66 426.06 205.66
  C 430.97 205.67 431.77 202.11 431.75 197.73
  Q 431.71 187.96 431.73 183.36
  A 1.14 1.14 0.0 0 1 432.86 182.23
  L 436.16 182.22
  A 1.20 1.19 -0.1 0 1 437.36 183.41
  Q 437.38 198.15 437.26 200.47
  C 436.93 207.20 432.42 210.25 426.06 210.25
  Z"
/>
<path fill="#3a306c" d="
  M 501.30 187.13
  L 501.26 192.85
  A 0.51 0.51 0.0 0 0 501.78 193.36
  L 509.24 193.35
  A 1.12 1.12 0.0 0 1 510.35 194.45
  L 510.37 196.53
  A 1.08 1.08 0.0 0 1 509.29 197.62
  L 501.73 197.58
  A 0.44 0.43 0.1 0 0 501.28 198.01
  L 501.27 204.98
  A 0.45 0.45 0.0 0 0 501.72 205.43
  L 510.83 205.43
  A 1.17 1.16 -89.6 0 1 512.00 206.62
  L 511.96 208.53
  A 1.28 1.28 0.0 0 1 510.68 209.80
  L 497.23 209.76
  A 1.58 1.57 0.3 0 1 495.66 208.19
  L 495.69 183.66
  A 1.36 1.35 -0.1 0 1 497.04 182.31
  L 510.82 182.31
  A 1.05 1.05 0.0 0 1 511.87 183.36
  L 511.88 185.48
  A 1.17 1.17 0.0 0 1 510.71 186.65
  L 501.80 186.63
  A 0.50 0.50 0.0 0 0 501.30 187.13
  Z"
/>
<path fill="#3a306c" d="
  M 578.83 205.64
  C 583.74 205.66 584.54 202.10 584.53 197.72
  Q 584.51 187.94 584.54 183.34
  A 1.14 1.14 0.0 0 1 585.68 182.21
  L 588.98 182.21
  A 1.20 1.19 0.0 0 1 590.18 183.40
  Q 590.17 198.15 590.05 200.47
  C 589.69 207.20 585.18 210.25 578.82 210.23
  C 572.46 210.22 567.96 207.15 567.64 200.41
  Q 567.53 198.09 567.60 183.34
  A 1.20 1.19 0.3 0 1 568.81 182.16
  L 572.11 182.17
  A 1.14 1.14 0.0 0 1 573.24 183.31
  Q 573.25 187.91 573.17 197.69
  C 573.14 202.07 573.92 205.63 578.83 205.64
  Z"
/>
<path fill="#3a306c" d="
  M 624.00 210.00
  Q 622.58 210.00 621.91 209.75
  A 1.07 1.06 -80.1 0 1 621.21 208.75
  L 621.21 187.37
  A 0.58 0.58 0.0 0 0 620.62 186.79
  L 614.67 186.79
  A 1.20 1.20 0.0 0 1 613.47 185.59
  L 613.47 183.42
  A 1.13 1.13 0.0 0 1 614.67 182.30
  Q 615.46 182.35 623.98 182.32
  Q 632.51 182.34 633.30 182.29
  A 1.13 1.13 0.0 0 1 634.50 183.41
  L 634.50 185.57
  A 1.20 1.20 0.0 0 1 633.30 186.78
  L 627.35 186.78
  A 0.58 0.58 0.0 0 0 626.77 187.36
  L 626.79 208.74
  A 1.07 1.06 80.0 0 1 626.09 209.75
  Q 625.42 210.00 624.00 210.00
  Z"
/>
<path fill="#3a306c" d="
  M 652.47 194.28
  L 652.47 196.67
  A 0.91 0.91 0.0 0 1 651.56 197.58
  L 644.30 197.58
  A 0.91 0.91 0.0 0 0 643.39 198.49
  L 643.39 204.54
  A 0.91 0.91 0.0 0 0 644.30 205.45
  L 653.17 205.45
  A 0.91 0.91 0.0 0 1 654.08 206.36
  L 654.08 208.86
  A 0.91 0.91 0.0 0 1 653.17 209.77
  L 638.73 209.77
  A 0.91 0.91 0.0 0 1 637.82 208.86
  L 637.82 183.22
  A 0.91 0.91 0.0 0 1 638.73 182.31
  L 653.06 182.31
  A 0.91 0.91 0.0 0 1 653.97 183.22
  L 653.97 185.70
  A 0.91 0.91 0.0 0 1 653.06 186.61
  L 644.28 186.61
  A 0.91 0.91 0.0 0 0 643.37 187.52
  L 643.37 192.46
  A 0.91 0.91 0.0 0 0 644.28 193.37
  L 651.56 193.37
  A 0.91 0.91 0.0 0 1 652.47 194.28
  Z"
/>
<path fill="#3a306c" d="
  M 664.12 188.93
  A 0.02 0.02 0.0 0 0 664.08 188.94
  L 664.08 208.40
  A 1.47 1.47 0.0 0 1 662.61 209.87
  L 660.41 209.87
  A 1.39 1.39 0.0 0 1 659.02 208.48
  L 659.02 184.00
  A 1.67 1.67 0.0 0 1 660.69 182.33
  L 664.91 182.33
  A 2.68 2.68 0.0 0 1 667.29 183.78
  L 676.22 200.96
  A 0.22 0.22 0.0 0 0 676.64 200.86
  L 676.64 183.32
  A 1.10 1.09 -90.0 0 1 677.73 182.22
  L 680.51 182.22
  A 1.13 1.13 0.0 0 1 681.64 183.35
  Q 681.71 207.43 681.72 207.50
  Q 681.85 209.45 680.23 209.77
  C 678.70 210.07 675.30 210.06 674.33 208.33
  Q 668.28 197.54 664.12 188.93
  Z"
/>
<path fill="#3a306c" d="
  M 695.62 182.32
  Q 704.14 182.35 704.93 182.30
  A 1.13 1.13 0.0 0 1 706.13 183.42
  L 706.13 185.58
  A 1.20 1.20 0.0 0 1 704.93 186.78
  L 698.98 186.78
  A 0.58 0.58 0.0 0 0 698.40 187.36
  L 698.40 208.72
  A 1.07 1.06 80.1 0 1 697.70 209.72
  Q 697.03 209.97 695.61 209.97
  Q 694.20 209.97 693.52 209.72
  A 1.07 1.06 -80.0 0 1 692.82 208.72
  L 692.84 187.36
  A 0.58 0.58 0.0 0 0 692.26 186.78
  L 686.31 186.77
  A 1.20 1.20 0.0 0 1 685.11 185.57
  L 685.12 183.41
  A 1.13 1.13 0.0 0 1 686.31 182.29
  Q 687.11 182.34 695.62 182.32
  Z"
/>
<path fill="#3a306c" d="
  M 710.47 204.36
  L 708.83 209.12
  A 1.23 1.23 0.0 0 1 707.66 209.95
  L 704.83 209.95
  A 1.23 1.23 0.0 0 1 703.67 208.32
  L 712.41 183.05
  A 1.23 1.23 0.0 0 1 713.58 182.22
  L 718.80 182.22
  A 1.23 1.23 0.0 0 1 719.96 183.04
  L 728.78 208.29
  A 1.23 1.23 0.0 0 1 727.62 209.93
  L 724.20 209.93
  A 1.23 1.23 0.0 0 1 723.04 209.10
  L 721.39 204.36
  A 1.23 1.23 0.0 0 0 720.23 203.53
  L 711.64 203.53
  A 1.23 1.23 0.0 0 0 710.47 204.36
  Z
  M 715.92 199.22
  Q 719.17 199.22 719.20 199.22
  A 0.49 0.49 0.0 0 0 719.59 198.58
  L 716.12 187.92
  A 0.17 0.05 9.1 0 0 715.98 187.85
  Q 715.93 187.84 715.92 187.84
  Q 715.91 187.84 715.86 187.85
  A 0.17 0.05 -9.1 0 0 715.72 187.92
  L 712.24 198.58
  A 0.49 0.49 0.0 0 0 712.63 199.21
  Q 712.66 199.22 715.92 199.22
  Z"
/>
<path fill="#3a306c" d="
  M 740.16 203.80
  Q 740.38 203.80 740.46 203.55
  Q 743.69 193.15 746.74 183.39
  A 1.77 1.77 0.0 0 1 748.43 182.15
  L 751.62 182.15
  A 1.04 1.04 0.0 0 1 752.60 183.53
  L 743.88 208.72
  A 1.78 1.76 6.6 0 1 742.37 209.90
  Q 741.38 210.00 740.15 210.00
  Q 738.93 210.00 737.93 209.90
  A 1.78 1.76 -6.6 0 1 736.43 208.72
  L 727.74 183.52
  A 1.04 1.04 0.0 0 1 728.72 182.14
  L 731.91 182.14
  A 1.77 1.77 0.0 0 1 733.60 183.38
  Q 736.64 193.15 739.86 203.55
  Q 739.94 203.80 740.16 203.80
  Z"
/>
<path fill="#3a306c" d="
  M 761.56 187.12
  L 761.52 192.84
  A 0.51 0.51 0.0 0 0 762.04 193.35
  L 769.50 193.35
  A 1.12 1.12 0.0 0 1 770.62 194.45
  L 770.63 196.53
  A 1.08 1.08 0.0 0 1 769.55 197.62
  L 761.98 197.58
  A 0.44 0.43 0.1 0 0 761.54 198.01
  L 761.53 204.99
  A 0.45 0.45 0.0 0 0 761.98 205.44
  L 771.09 205.44
  A 1.17 1.16 -89.6 0 1 772.26 206.63
  L 772.23 208.54
  A 1.28 1.28 0.0 0 1 770.95 209.81
  L 757.48 209.77
  A 1.58 1.57 0.3 0 1 755.91 208.20
  L 755.95 183.64
  A 1.36 1.35 -0.1 0 1 757.30 182.30
  L 771.09 182.30
  A 1.05 1.05 0.0 0 1 772.14 183.35
  L 772.15 185.48
  A 1.17 1.17 0.0 0 1 770.97 186.64
  L 762.06 186.62
  A 0.50 0.50 0.0 0 0 761.56 187.12
  Z"
/>
<rect fill="#3a306c" x="777.17" y="182.16" width="5.68" height="27.72" rx="1.26"/>
</svg>
